<?xml version="1.0" standalone="no"?>
<!DOCTYPE svg PUBLIC "-//W3C//DTD SVG 20010904//EN"
 "http://www.w3.org/TR/2001/REC-SVG-20010904/DTD/svg10.dtd">
<svg version="1.0" xmlns="http://www.w3.org/2000/svg"
 width="105.000000pt" height="105.000000pt" viewBox="0 0 105.000000 105.000000"
 preserveAspectRatio="xMidYMid meet">
<metadata>
Created by potrace 1.14, written by Peter Selinger 2001-2017
</metadata>
<g transform="translate(0.000000,105.000000) scale(0.100000,-0.100000)"
fill="#000000" stroke="none">
<path d="M460 977 c-78 -20 -127 -52 -140 -92 -9 -28 -9 -39 0 -50 13 -16 22
-115 11 -113 -27 3 -38 -7 -49 -45 -14 -46 -9 -70 18 -102 16 -18 16 -27 3
-100 -7 -44 -19 -125 -26 -180 -12 -91 -15 -100 -35 -103 -12 -2 -20 -7 -17
-12 6 -10 -111 -39 -135 -33 -24 6 -70 -22 -70 -42 0 -8 -4 -15 -10 -15 -5 0
-10 -13 -10 -30 l0 -30 525 0 525 0 0 22 c0 13 -8 32 -18 44 -19 23 -76 49
-90 40 -16 -10 -81 16 -75 30 3 7 -5 25 -16 40 -15 19 -21 41 -21 80 0 61 -22
174 -45 231 -15 37 -14 42 4 84 23 50 27 105 9 112 -7 2 -23 -2 -34 -10 -20
-12 -22 -11 -32 14 -13 35 -52 204 -52 224 0 41 -122 61 -220 36z m127 -343
c-3 -3 -12 -4 -19 -1 -8 3 -5 6 6 6 11 1 17 -2 13 -5z m-7 -25 c0 -6 10 -24
21 -41 19 -27 26 -29 73 -27 l51 3 -1 -35 c0 -18 -4 -43 -8 -54 -6 -16 -6 -17
3 -5 9 13 11 12 11 -6 0 -12 -6 -27 -14 -33 -11 -10 -17 -8 -25 6 -7 14 -8 8
-4 -23 4 -29 1 -44 -8 -50 -8 -5 -62 -9 -121 -9 l-108 0 0 50 c-1 44 -2 48
-14 33 -15 -20 -36 -24 -36 -7 0 5 -4 7 -10 4 -5 -3 -10 3 -10 14 0 12 5 21
10 21 15 0 12 26 -5 40 -15 13 -15 35 2 93 4 16 7 15 24 -7 41 -52 130 -40
145 19 6 25 24 35 24 14z m200 -264 c0 -5 -5 -3 -10 5 -5 8 -10 20 -10 25 0 6
5 3 10 -5 5 -8 10 -19 10 -25z m0 -46 c0 -11 -4 -18 -10 -14 -5 3 -7 12 -3 20
7 21 13 19 13 -6z m-193 -15 c-3 -3 -12 -4 -19 -1 -8 3 -5 6 6 6 11 1 17 -2
13 -5z m-4 -17 c68 2 78 0 75 -15 -2 -10 -22 -22 -51 -30 -45 -13 -47 -15 -47
-50 0 -28 -3 -33 -10 -22 -5 8 -10 25 -10 37 0 18 -10 25 -60 39 -33 9 -63 21
-66 25 -8 13 37 27 66 21 14 -4 60 -6 103 -5z m141 -62 c7 -39 7 -39 -9 -17
-10 13 -14 30 -10 43 9 26 11 23 19 -26z m49 -35 c3 -11 1 -20 -4 -20 -5 0 -9
9 -9 20 0 11 2 20 4 20 2 0 6 -9 9 -20z m-253 -5 c0 -8 -4 -15 -9 -15 -13 0
-22 16 -14 24 11 11 23 6 23 -9z m79 1 c9 -10 8 -15 -4 -20 -10 -4 -15 1 -15
14 0 24 4 25 19 6z"/>
<path d="M516 512 c-4 -3 8 -11 26 -17 33 -11 93 -1 83 14 -5 9 -101 12 -109
3z"/>
<path d="M490 450 c-17 -5 7 -8 70 -9 65 0 90 2 80 9 -18 11 -114 11 -150 0z"/>
<path d="M510 410 c20 -13 130 -13 130 0 0 6 -31 10 -72 10 -51 0 -68 -3 -58
-10z"/>
</g>
</svg>
